<svg viewBox="0 0 1496 400" xmlns="http://www.w3.org/2000/svg"><g><g><g><g><g><line x1="52.1875" y1="376" x2="47.1875" y2="376" style="visibility: inherit;" fill="rgb(0, 0, 0)" stroke="rgb(204, 204, 204)" stroke-width="1px"></line><line x1="52.1875" y1="347.0769230769231" x2="47.1875" y2="347.0769230769231" style="visibility: inherit;" fill="rgb(0, 0, 0)" stroke="rgb(204, 204, 204)" stroke-width="1px"></line><line x1="52.1875" y1="318.15384615384613" x2="47.1875" y2="318.15384615384613" style="visibility: inherit;" fill="rgb(0, 0, 0)" stroke="rgb(204, 204, 204)" stroke-width="1px"></line><line x1="52.1875" y1="289.2307692307692" x2="47.1875" y2="289.2307692307692" style="visibility: inherit;" fill="rgb(0, 0, 0)" stroke="rgb(204, 204, 204)" stroke-width="1px"></line><line x1="52.1875" y1="260.3076923076923" x2="47.1875" y2="260.3076923076923" style="visibility: inherit;" fill="rgb(0, 0, 0)" stroke="rgb(204, 204, 204)" stroke-width="1px"></line><line x1="52.1875" y1="231.3846153846154" x2="47.1875" y2="231.3846153846154" style="visibility: inherit;" fill="rgb(0, 0, 0)" stroke="rgb(204, 204, 204)" stroke-width="1px"></line><line x1="52.1875" y1="202.46153846153848" x2="47.1875" y2="202.46153846153848" style="visibility: inherit;" fill="rgb(0, 0, 0)" stroke="rgb(204, 204, 204)" stroke-width="1px"></line><line x1="52.1875" y1="173.53846153846155" x2="47.1875" y2="173.53846153846155" style="visibility: inherit;" fill="rgb(0, 0, 0)" stroke="rgb(204, 204, 204)" stroke-width="1px"></line><line x1="52.1875" y1="144.61538461538464" x2="47.1875" y2="144.61538461538464" style="visibility: inherit;" fill="rgb(0, 0, 0)" stroke="rgb(204, 204, 204)" stroke-width="1px"></line><line x1="52.1875" y1="115.69230769230768" x2="47.1875" y2="115.69230769230768" style="visibility: inherit;" fill="rgb(0, 0, 0)" stroke="rgb(204, 204, 204)" stroke-width="1px"></line><line x1="52.1875" y1="86.76923076923077" x2="47.1875" y2="86.76923076923077" style="visibility: inherit;" fill="rgb(0, 0, 0)" stroke="rgb(204, 204, 204)" stroke-width="1px"></line><line x1="52.1875" y1="57.84615384615387" x2="47.1875" y2="57.84615384615387" style="visibility: inherit;" fill="rgb(0, 0, 0)" stroke="rgb(204, 204, 204)" stroke-width="1px"></line><line x1="52.1875" y1="28.923076923076906" x2="47.1875" y2="28.923076923076906" style="visibility: inherit;" fill="rgb(0, 0, 0)" stroke="rgb(204, 204, 204)" stroke-width="1px"></line><line x1="52.1875" y1="0" x2="47.1875" y2="0" style="visibility: inherit;" fill="rgb(0, 0, 0)" stroke="rgb(204, 204, 204)" stroke-width="1px"></line></g><g transform="translate(42.1875, 0)"><text x="0" y="376" dx="0em" dy="0.3em" style="text-anchor: end; visibility: hidden; font-family: &quot;Helvetica Neue&quot;, sans-serif; font-size: 12px; font-weight: 200;" fill="rgb(50, 49, 63)" stroke="none" stroke-width="1px">-0.1</text><text x="0" y="347.0769230769231" dx="0em" dy="0.3em" style="text-anchor: end; visibility: inherit; font-family: &quot;Helvetica Neue&quot;, sans-serif; font-size: 12px; font-weight: 200;" fill="rgb(50, 49, 63)" stroke="none" stroke-width="1px">0</text><text x="0" y="318.15384615384613" dx="0em" dy="0.3em" style="text-anchor: end; visibility: inherit; font-family: &quot;Helvetica Neue&quot;, sans-serif; font-size: 12px; font-weight: 200;" fill="rgb(50, 49, 63)" stroke="none" stroke-width="1px">0.1</text><text x="0" y="289.2307692307692" dx="0em" dy="0.3em" style="text-anchor: end; visibility: inherit; font-family: &quot;Helvetica Neue&quot;, sans-serif; font-size: 12px; font-weight: 200;" fill="rgb(50, 49, 63)" stroke="none" stroke-width="1px">0.2</text><text x="0" y="260.3076923076923" dx="0em" dy="0.3em" style="text-anchor: end; visibility: inherit; font-family: &quot;Helvetica Neue&quot;, sans-serif; font-size: 12px; font-weight: 200;" fill="rgb(50, 49, 63)" stroke="none" stroke-width="1px">0.3</text><text x="0" y="231.3846153846154" dx="0em" dy="0.3em" style="text-anchor: end; visibility: inherit; font-family: &quot;Helvetica Neue&quot;, sans-serif; font-size: 12px; font-weight: 200;" fill="rgb(50, 49, 63)" stroke="none" stroke-width="1px">0.4</text><text x="0" y="202.46153846153848" dx="0em" dy="0.3em" style="text-anchor: end; visibility: inherit; font-family: &quot;Helvetica Neue&quot;, sans-serif; font-size: 12px; font-weight: 200;" fill="rgb(50, 49, 63)" stroke="none" stroke-width="1px">0.5</text><text x="0" y="173.53846153846155" dx="0em" dy="0.3em" style="text-anchor: end; visibility: inherit; font-family: &quot;Helvetica Neue&quot;, sans-serif; font-size: 12px; font-weight: 200;" fill="rgb(50, 49, 63)" stroke="none" stroke-width="1px">0.6</text><text x="0" y="144.61538461538464" dx="0em" dy="0.3em" style="text-anchor: end; visibility: inherit; font-family: &quot;Helvetica Neue&quot;, sans-serif; font-size: 12px; font-weight: 200;" fill="rgb(50, 49, 63)" stroke="none" stroke-width="1px">0.7</text><text x="0" y="115.69230769230768" dx="0em" dy="0.3em" style="text-anchor: end; visibility: inherit; font-family: &quot;Helvetica Neue&quot;, sans-serif; font-size: 12px; font-weight: 200;" fill="rgb(50, 49, 63)" stroke="none" stroke-width="1px">0.8</text><text x="0" y="86.76923076923077" dx="0em" dy="0.3em" style="text-anchor: end; visibility: inherit; font-family: &quot;Helvetica Neue&quot;, sans-serif; font-size: 12px; font-weight: 200;" fill="rgb(50, 49, 63)" stroke="none" stroke-width="1px">0.9</text><text x="0" y="57.84615384615387" dx="0em" dy="0.3em" style="text-anchor: end; visibility: inherit; font-family: &quot;Helvetica Neue&quot;, sans-serif; font-size: 12px; font-weight: 200;" fill="rgb(50, 49, 63)" stroke="none" stroke-width="1px">1</text><text x="0" y="28.923076923076906" dx="0em" dy="0.3em" style="text-anchor: end; visibility: inherit; font-family: &quot;Helvetica Neue&quot;, sans-serif; font-size: 12px; font-weight: 200;" fill="rgb(50, 49, 63)" stroke="none" stroke-width="1px">1.1</text><text x="0" y="0" dx="0em" dy="0.3em" style="text-anchor: end; visibility: hidden; font-family: &quot;Helvetica Neue&quot;, sans-serif; font-size: 12px; font-weight: 200;" fill="rgb(50, 49, 63)" stroke="none" stroke-width="1px">1.2</text></g><line x1="52.1875" y1="0" x2="52.1875" y2="376" fill="rgb(0, 0, 0)" stroke="rgb(204, 204, 204)" stroke-width="1px"></line></g></g><g transform="translate(52, 0)" clip-path="url(#clip_0)"><clipPath id="clip_0"><rect width="1443" height="376"></rect></clipPath><g><g><g><line x1="0" y1="0" x2="0" y2="376" fill="rgb(0, 0, 0)" stroke="rgb(60, 60, 60)" stroke-width="1px" opacity="0.25"></line><line x1="111.0625" y1="0" x2="111.0625" y2="376" fill="rgb(0, 0, 0)" stroke="rgb(60, 60, 60)" stroke-width="1px" opacity="0.25"></line><line x1="222.125" y1="0" x2="222.125" y2="376" fill="rgb(0, 0, 0)" stroke="rgb(60, 60, 60)" stroke-width="1px" opacity="0.25"></line><line x1="333.1875" y1="0" x2="333.1875" y2="376" fill="rgb(0, 0, 0)" stroke="rgb(60, 60, 60)" stroke-width="1px" opacity="0.25"></line><line x1="444.25" y1="0" x2="444.25" y2="376" fill="rgb(0, 0, 0)" stroke="rgb(60, 60, 60)" stroke-width="1px" opacity="0.25"></line><line x1="555.3125" y1="0" x2="555.3125" y2="376" fill="rgb(0, 0, 0)" stroke="rgb(60, 60, 60)" stroke-width="1px" opacity="0.25"></line><line x1="666.375" y1="0" x2="666.375" y2="376" fill="rgb(0, 0, 0)" stroke="rgb(60, 60, 60)" stroke-width="1px" opacity="0.25"></line><line x1="777.4375" y1="0" x2="777.4375" y2="376" fill="rgb(0, 0, 0)" stroke="rgb(60, 60, 60)" stroke-width="1px" opacity="0.25"></line><line x1="888.5" y1="0" x2="888.5" y2="376" fill="rgb(0, 0, 0)" stroke="rgb(60, 60, 60)" stroke-width="1px" opacity="0.25"></line><line x1="999.5625" y1="0" x2="999.5625" y2="376" fill="rgb(0, 0, 0)" stroke="rgb(60, 60, 60)" stroke-width="1px" opacity="0.25"></line><line x1="1110.625" y1="0" x2="1110.625" y2="376" fill="rgb(0, 0, 0)" stroke="rgb(60, 60, 60)" stroke-width="1px" opacity="0.25"></line><line x1="1221.6875" y1="0" x2="1221.6875" y2="376" fill="rgb(0, 0, 0)" stroke="rgb(60, 60, 60)" stroke-width="1px" opacity="0.25"></line><line x1="1332.75" y1="0" x2="1332.75" y2="376" fill="rgb(0, 0, 0)" stroke="rgb(60, 60, 60)" stroke-width="1px" opacity="0.25"></line><line x1="1443.8125" y1="0" x2="1443.8125" y2="376" fill="rgb(0, 0, 0)" stroke="rgb(60, 60, 60)" stroke-width="1px" opacity="0.25"></line></g><g><line x1="0" y1="376" x2="1443.8125" y2="376" fill="rgb(0, 0, 0)" stroke="rgb(60, 60, 60)" stroke-width="1px" opacity="0.25"></line><line x1="0" y1="347.0769230769231" x2="1443.8125" y2="347.0769230769231" fill="rgb(0, 0, 0)" stroke="rgb(60, 60, 60)" stroke-width="1px" opacity="0.25"></line><line x1="0" y1="318.15384615384613" x2="1443.8125" y2="318.15384615384613" fill="rgb(0, 0, 0)" stroke="rgb(60, 60, 60)" stroke-width="1px" opacity="0.25"></line><line x1="0" y1="289.2307692307692" x2="1443.8125" y2="289.2307692307692" fill="rgb(0, 0, 0)" stroke="rgb(60, 60, 60)" stroke-width="1px" opacity="0.25"></line><line x1="0" y1="260.3076923076923" x2="1443.8125" y2="260.3076923076923" fill="rgb(0, 0, 0)" stroke="rgb(60, 60, 60)" stroke-width="1px" opacity="0.25"></line><line x1="0" y1="231.3846153846154" x2="1443.8125" y2="231.3846153846154" fill="rgb(0, 0, 0)" stroke="rgb(60, 60, 60)" stroke-width="1px" opacity="0.25"></line><line x1="0" y1="202.46153846153848" x2="1443.8125" y2="202.46153846153848" fill="rgb(0, 0, 0)" stroke="rgb(60, 60, 60)" stroke-width="1px" opacity="0.25"></line><line x1="0" y1="173.53846153846155" x2="1443.8125" y2="173.53846153846155" fill="rgb(0, 0, 0)" stroke="rgb(60, 60, 60)" stroke-width="1px" opacity="0.25"></line><line x1="0" y1="144.61538461538464" x2="1443.8125" y2="144.61538461538464" fill="rgb(0, 0, 0)" stroke="rgb(60, 60, 60)" stroke-width="1px" opacity="0.25"></line><line x1="0" y1="115.69230769230768" x2="1443.8125" y2="115.69230769230768" fill="rgb(0, 0, 0)" stroke="rgb(60, 60, 60)" stroke-width="1px" opacity="0.25"></line><line x1="0" y1="86.76923076923077" x2="1443.8125" y2="86.76923076923077" fill="rgb(0, 0, 0)" stroke="rgb(60, 60, 60)" stroke-width="1px" opacity="0.25"></line><line x1="0" y1="57.84615384615387" x2="1443.8125" y2="57.84615384615387" fill="rgb(0, 0, 0)" stroke="rgb(60, 60, 60)" stroke-width="1px" opacity="0.25"></line><line x1="0" y1="28.923076923076906" x2="1443.8125" y2="28.923076923076906" fill="rgb(0, 0, 0)" stroke="rgb(60, 60, 60)" stroke-width="1px" opacity="0.25"></line><line x1="0" y1="0" x2="1443.8125" y2="0" fill="rgb(0, 0, 0)" stroke="rgb(60, 60, 60)" stroke-width="1px" opacity="0.25"></line></g></g></g><g><g><line x1="0" y1="347.0769230769231" x2="1443.8125" y2="347.0769230769231" fill="rgb(0, 0, 0)" stroke="rgb(153, 153, 153)" stroke-width="1.5px"></line></g></g><g><g><line x1="111.0625" y1="0" x2="111.0625" y2="376" fill="rgb(0, 0, 0)" stroke="rgb(153, 153, 153)" stroke-width="1.5px"></line></g></g><g><g><g><g><g><path stroke="rgb(255, 112, 67)" stroke-width="2px" d="M115.505,347.0769230769231L117.72625,347.0769230769231L119.9475,347.0769230769231L122.16875,262.9737624980428L124.39,212.88277359621162L126.61125,241.52252856425437L128.83249999999998,261.7551847460307L131.05375,276.7361901997979L133.275,288.21890087066214L137.7175,297.2556080564795L139.93875,304.51618578276833L142.16,310.44741337056996L144.38125,315.35876369804015L146.6025,319.47142451551974L148.82375000000002,322.947710913658L151.045,325.9094479895554L153.26625,328.4498655509334L157.70875,330.6415280935624L159.93,332.5417608617927L162.15125,334.19644846670326L164.3725,335.6427486295215L166.59375,336.9110663087884L168.815,306.2907120089082L171.03625,310.722870645286L173.2575,314.6394460485116L175.47875,287.18634979842983L179.92125,262.8363862253968L182.14249999999998,271.72565783623645L184.36374999999998,249.2805121910558L186.585,259.49307567467224L188.80625,268.59886487082883L191.02750000000003,246.7742039163331L193.24874999999997,227.2789335597547L195.47,239.60145686762147L197.69125,250.6249383726876L202.13375000000002,260.49243576691697L204.355,269.3300725287203L206.57625,247.78859163896152L208.7975,257.8832107645733L211.01875,266.9363960680257L213.24,275.05849538827766L215.46124999999998,282.3476071584783L217.6825,288.89104602942854L219.90375,265.5603013785127L224.34624999999997,273.78373739833927L226.5675,252.01901349757287L228.78875,261.5924855569449L231.01,270.19566865679957L233.23125000000002,277.92807307009883L235.4525,284.8787804541706L237.67374999999998,291.12757912976673L239.895,296.7459678134478L242.11625,272.76589081845566L246.55874999999997,280.2222067707682L248.78,286.9280860868669L251.00125,292.95948936186414L253.2225,269.39005633991786L255.44375000000002,277.17601640922237L257.66499999999996,284.1800919603333L259.88625,290.4810980448259L262.1075,267.179918411137L264.32875,246.216027368854L268.77125,256.3153472558361L270.9925,265.40221842677875L273.21375,273.57836473646455L275.435,280.93524642894914L277.65625,287.5551038907311L279.8775,264.5664259022275L282.09875,272.8232239910423L284.32,280.2532493956477L286.54125,286.93938721645475L290.98375,292.95619450540084L293.205,298.3707405967574L295.42625,303.243361971219L297.64750000000004,278.69455838406384L299.86875000000003,285.53507267371674L302.09,291.6911026187939L304.31125,268.30029873635067L306.5325,276.17987393291395L308.75375,283.2711281055283L313.19624999999996,289.6529624439304L315.4175,295.3963748864531L317.63875,300.5652529419096L319.86,305.2170867544787L322.08125,309.40361047762184L324.3025,313.171379199264L326.52375,316.5622879223303L328.745,319.6140384430508L330.96625,322.3605593760836L335.40875,324.83238404321554L337.63,327.0569904647421L339.85125,329.05910726387833L342.0725,330.86098890959283L344.29375000000005,332.48266337754774L346.515,333.94215499828226L348.73625,335.25568498278693L350.9575,336.43785186491124L353.17875000000004,308.5777684793468L357.62125,312.4277975637247L359.8425,315.8928021504135L362.06374999999997,319.0112887912953L364.28499999999997,321.8179126036203L366.50624999999997,295.42022558260203L368.72749999999996,300.5859853553878L370.94875,276.3116214795051L373.17,283.3882515316574L375.39125,289.7571995987953L379.83375,295.48923748564744L382.05500000000006,300.6480591312688L384.27624999999995,305.29098852580074L386.49749999999995,309.4696168108178L388.71875,284.3070817519689L390.94,290.58410826413035L393.16125,267.3101714006736L395.3825,246.36365509382472L397.60375,256.4350314622489L402.04625000000004,265.49926077546723L404.26750000000004,273.65705952850067L406.48875,252.0758915259317L408.71,261.57602535930016L410.93125,270.1261399804437L413.1525,277.82123841807805L415.37375,284.74682318762257L417.595,290.9798463825107L422.0375,296.58956474877317L424.25875,301.6383092460099L426.48,306.18217764728024L428.70124999999996,310.2716578749677L430.92249999999996,313.95218899978767L433.14375,317.26466613724597L435.365,291.32278861937436L437.58625,267.9751038481594L439.8075,275.88529226396366L444.25,283.0044606045303L446.47125000000005,289.41171111177823L448.69249999999994,295.17823575889923L450.91375,300.36810728569253L453.135,305.03899112875797L455.35625,309.2427861573676L457.5775,313.0262013346955L459.79875,316.4312747120697L462.02,319.49584052310763L466.46250000000003,322.25394956787676L468.68375000000003,324.73624755818526L470.905,298.04723199974984L473.12624999999997,302.9502021304436L475.34749999999997,278.43979269945464L477.56874999999997,256.3804250860512L479.79,265.45007626464724L482.01125,244.68968118087668L484.2325,254.92840663191618L488.675,264.14325929817903L490.89625,243.5135466942573L493.11749999999995,253.86988526267322L495.33874999999995,234.2675105365016L497.56,245.5484526112294L499.78125,226.77822150574528L502.0025,238.80809237175077L504.22375,249.63497601646708L506.445,230.4560928840064L510.88750000000005,242.11817640427782L513.10875,252.61405147733592L515.3299999999999,262.06033896598746L517.55125,241.63891981447918L519.7725,252.18272043789784L521.99375,261.6721409425116L524.215,241.28954176754837L526.43625,222.94520259849372L528.6575,206.43529741795842L533.1,220.49946021792206L535.3212500000001,204.23412933711452L537.5425,218.51840890365713L539.76375,202.45118320296947L541.985,187.99068010938868L544.20625,203.89930456248268L546.4275,189.2939893616706L548.64875,176.1492057054838L550.87,164.31890043479635L555.3125,182.5947028168471L557.53375,170.11984784738635L559.755,158.89247838862602L561.9762499999999,177.7109229459103L564.1975,194.64752303065984L566.41875,180.96738606012428L568.64,168.65526279653844L570.86125,157.57435186732707L573.0825,147.60153203752967L577.525,138.62599419597117L579.7462499999999,159.47108713093024L581.9675,149.30859378189004L584.18875,169.08542674740775L586.41,157.96149943905095L588.63125,147.94996486499383L590.8525,138.93958375114818L593.07375,130.8302407509599L597.51625,123.53183205263124L599.7375000000001,116.96326422562663L601.95875,139.97463013079908L604.18,131.7617824958965L606.40125,124.37021962570745L608.6225,117.71781304352811L610.84375,111.73064712036921L613.065,135.26527472812887L615.28625,127.52336263634777L619.72875,149.4787186895518L621.95,140.31546220177637L624.17125,132.06853136343125L626.3924999999999,153.5693705413102L628.61375,143.9970488691782L630.835,135.38195936475645L633.05625,127.6283788111796L635.2775,120.65015631328663L637.49875,114.36975606544706L641.9412500000001,108.71739584260547L644.1625,103.63027164222137L646.38375,99.0518598620161L648.605,94.931289259945L650.82625,91.22277571817318L653.0475,87.8851135306532L655.26875,84.88121756194562L657.49,82.17771119015777L659.7112500000001,79.74455545558828L664.1537500000001,77.55471529450796L666.375,75.58385914956159L668.5962499999999,73.81008861913102L670.8175,72.21369514176058L673.0387499999999,70.77694101214087L675.26,69.48386229549442L677.48125,68.32009145052172L679.7025,67.27269769005363L681.92375,66.33004330563824L686.36625,65.48165435966922L688.5875000000001,64.71810430830106L690.8087499999999,64.0309092620729L693.03,63.41243372047006L695.25125,62.85580573302963L697.4725,62.35484054433482L699.69375,61.90397187451089L701.915,61.498190071670535L704.13625,61.13298644911504L708.57875,60.80430318881588L710.8000000000001,60.50848825454716L713.02125,60.24225481370581L715.2425,60.002644716948964L717.46375,59.786995629868215L719.685,59.59291145149564L721.90625,88.34131261418185L724.1274999999999,85.2917967373653L726.34875,111.47030937142688L730.79125,106.10789381888009L733.0124999999999,101.28171982159165L735.2337500000001,96.93816322403507L737.4549999999999,93.0289622862366L739.6762500000001,89.51068144221989L741.8975,86.34422868260657L744.11875,83.4944211989557L746.34,80.92959446367115L748.56125,78.6212504019158L753.00375,105.46681766945437L755.225,100.70475128711826L757.44625,96.41889154301697L759.6675,92.56161777332665L761.88875,89.09007138060616L764.1100000000001,85.96567962715835L766.33125,83.15372704905576L768.5524999999999,109.54604665186031L770.7737500000001,104.37605737128655L775.2162500000001,99.72306701877068L777.4375,95.53537570150701L779.65875,91.76645351597L781.88,88.37442354898701L784.10125,114.24467350178992L786.3225,137.52789845931073L788.5437499999999,129.55972399799273L790.765,122.38836698280699L792.9862499999999,115.93414566914021L797.4287499999999,110.12534648684027L799.6500000000001,133.82050414585308L801.8712499999999,126.22306911588183L804.0925000000001,119.385377588908L806.31375,113.2314552146317L808.5350000000001,107.69292507778323L810.75625,102.70824795461976L812.9775,98.22203854377267L815.19875,94.18445007401044L819.64125,90.55062045122446L821.8625,87.28017379071719L824.08375,84.33677179626062L826.305,81.6877100012498L828.5262500000001,108.22663130881858L830.7475,103.18858356255191L832.9687499999999,98.65434059091189L835.19,94.57352191643588L837.41125,90.9007851094076L841.85375,87.5953219830821L844.075,84.62040516938924L846.29625,81.94298003706552L848.5175,79.53329741797438L850.73875,77.36458306079231L852.96,75.41274013932838L855.18125,102.57915843308831L857.4024999999999,127.02893489747217L859.62375,120.11065679234022L864.0662500000001,113.88420649772155L866.2875,108.28040123256466L868.5087500000001,132.16005341700077L870.73,124.72866345991602L872.9512500000001,118.04041249853975L875.1725,112.0209866333011L877.39375,106.60350335458634L879.615,101.72776840374308L881.83625,126.26268387106123L886.27875,119.42103086857043L888.5,113.26354316632876L890.7212499999999,107.72180423431126L892.9425000000001,102.73423919549549L895.16375,98.24543066056134L897.3849999999999,94.20550297912058L899.60625,90.56956806582389L901.8275,87.29722664385685L904.04875,113.27519628716357L908.49125,107.73229204306256L910.7125,102.74367822337166L912.93375,98.25392578564993L915.155,94.21314859170036L917.37625,119.49952604022263L919.5975,113.33418882081571L921.8187499999999,107.78538532334954L924.04,102.79146217562999L926.2612499999999,98.29693134268234L930.70375,94.25185359302952L932.9250000000001,90.61128361834193L935.14625,87.33477064112316L937.3675000000001,84.38590896162611L939.58875,81.73193345007888L941.81,79.34335548968642L944.03125,106.11671224841012L946.2524999999999,101.28965640818444L948.47375,96.94530615198141L952.91625,93.03539092139863L955.1374999999999,118.4395441369511L957.3587500000001,112.3802051078714L959.58,135.84987690477655L961.8012500000001,128.04950459891427L964.0225,121.02916952363825L966.24375,114.7108679558898L968.465,109.02439654491621L970.68625,103.90657227503993L975.12875,99.30053043215133L977.35,95.15509277355159L979.57125,91.42419888081184L981.7925,88.066394377346L984.01375,113.96744724730371L986.2349999999999,137.27839483026565L988.4562500000001,129.33517073185448L990.6774999999999,122.18626904328445L992.8987500000001,115.75225752357136L997.3412500000001,109.96164715582961L999.5625,104.75009782486205L1001.78375,100.05970342699123L1004.005,95.8383484689075L1006.22625,92.0391290066321L1008.4475,88.61983149058432L1010.6687499999999,114.46554064921816L1012.89,108.80360196891172L1015.1112499999999,132.63093407971286L1019.5537499999999,125.15245605635695L1021.7750000000001,118.42182583533662L1023.99625,112.36425863641836L1026.2175,106.91244815739196L1028.43875,102.00581872626816L1030.6599999999999,97.5898522382567L1032.88125,93.61548239904641L1035.1025,90.03854954375714L1037.32375,86.81930997399684L1041.7662500000001,83.92199436121257L1043.9875,81.31441030970672L1046.20875,78.96758466335137L1048.43,76.85544158163162L1050.65125,74.9545128080839L1052.8725,73.24367691189087L1055.09375,71.70392460531718L1057.315,70.31814752940085L1059.5362499999999,69.07094816107616L1063.97875,67.94846872958396L1066.2,95.86131416431789L1068.42125,92.05979813250144L1070.6425000000002,88.63843370386672L1072.86375,85.55920571809543L1075.085,82.78790053090131L1077.30625,80.29372586242653L1079.5275,78.04896866079923L1081.74875,76.02868717933478L1086.19125,103.13351076909362L1088.4125,98.60477507679963L1090.63375,94.52891295373507L1092.855,90.86063704297692L1095.0762499999998,87.55918872329465L1097.2975,84.58788523558059L1099.51875,81.91371209663788L1101.74,79.5069562715895L1103.96125,77.34087602904594L1108.40375,104.31448073383365L1110.625,99.66764804506568L1112.84625,95.4854986251745L1115.0675,91.72156414727243L1117.28875,88.33402311716054L1119.51,85.28523619005989L1121.73125,82.54132795566926L1123.9524999999999,108.99488746779463L1126.17375,103.88001410563055L1130.61625,99.27662807968295L1132.8375,95.13358065632997L1135.0587500000001,120.32791489838931L1137.28,143.00281571624268L1139.50125,134.4871495292338L1141.7225,126.8230499609258L1143.94375,119.92536034944857L1146.165,113.71743969911915L1148.38625,108.13031111382264L1152.82875,103.10189538705578L1155.05,98.5763212329656L1157.27125,123.42638141736131L1159.4924999999998,116.86835866024057L1161.7137500000001,139.88921510190883L1163.935,131.6849089763333L1166.15625,124.30103346331538L1168.3775,146.57862242467615L1170.59875,137.7053755668239L1175.04125,158.6425303178338L1177.2625,148.56289267066583L1179.48375,139.49121878821464L1181.705,131.3267122940086L1183.92625,123.97865644922311L1186.1475,117.36540618891621L1188.3687499999999,111.41348095463997L1190.5900000000001,106.05674824379139L1192.81125,101.23568880402757L1197.25375,96.89673530824024L1199.4750000000001,92.99167716203152L1201.69625,118.40020175352072L1203.9175,112.34479696278402L1206.13875,135.81800957419793L1208.36,128.02082400139355L1210.58125,121.00335698586954L1212.8025,114.68763667189796L1215.02375,109.00348838932359L1219.4662500000002,103.88775493500663L1221.6875,99.28359482612132L1223.90875,95.1398507281246L1226.13,120.33355796300441L1228.35125,143.00789447439632L1230.5725,163.414797334649L1232.79375,152.85793298579947L1235.015,143.3567550718349L1237.23625,134.80569494926678L1241.67875,127.1097408389555L1243.9,120.18338213967536L1246.12125,113.94965931032317L1248.3425,137.26238568698318L1250.56375,129.3207625029002L1252.7849999999999,122.17330163722556L1255.0062500000001,144.66366378119534L1257.2275,164.90498971076812L1259.44875,154.19910612430667L1263.8912500000001,144.56381089649142L1266.1125,135.89204519145764L1268.33375,128.08745605692724L1270.555,121.06332583584992L1272.77625,143.66468555995723L1274.9975,164.00590931165382L1277.21875,153.38993376510382L1279.44,143.83555577320885L1281.6612499999999,135.23661558050333L1286.10375,127.4975694070684L1288.325,120.53242785097692L1290.54625,143.18687737357155L1292.7675,134.6528050208298L1294.98875,126.97213990336218L1297.21,120.05954129764135L1299.43125,113.83820255249259L1301.6525,108.23899768185873L1303.87375,103.1997132982882L1308.31625,98.66435735307482L1310.5375,94.58253700238271L1312.75875,90.90889868675981L1314.98,87.60262420269919L1317.2012499999998,84.62697716704463L1319.4225000000001,81.94889483495558L1321.64375,79.53862073607542L1323.865,77.36937404708323L1328.3075000000001,75.41705202699029L1330.52875,73.65996220890668L1332.75,72.07858137263139L1334.97125,70.6553386199837L1337.1924999999999,69.37442014260068L1339.41375,68.22159351295596L1341.635,67.18404954627579L1343.85625,66.25025997626358L1346.0774999999999,65.40984936325259L1350.52,93.57655673461966L1352.74125,90.00351644577307L1354.9625,86.78778018581119L1357.18375,83.89361755184541" style="fill: none;" fill="none"></path></g></g></g></g><g opacity="0.2"><g><g><g><path stroke="rgb(255, 112, 67)" stroke-width="2px" d="M115.505,347.0769230769231L117.72625,347.0769230769231L119.9475,347.0769230769231L122.16875,57.84615384615387L124.39,57.84615384615387L126.61125,347.0769230769231L128.83249999999998,347.0769230769231L131.05375,347.0769230769231L133.275,347.0769230769231L137.7175,347.0769230769231L139.93875,347.0769230769231L142.16,347.0769230769231L144.38125,347.0769230769231L146.6025,347.0769230769231L148.82375000000002,347.0769230769231L151.045,347.0769230769231L153.26625,347.0769230769231L157.70875,347.0769230769231L159.93,347.0769230769231L162.15125,347.0769230769231L164.3725,347.0769230769231L166.59375,347.0769230769231L168.815,57.84615384615387L171.03625,347.0769230769231L173.2575,347.0769230769231L175.47875,57.84615384615387L179.92125,57.84615384615387L182.14249999999998,347.0769230769231L184.36374999999998,57.84615384615387L186.585,347.0769230769231L188.80625,347.0769230769231L191.02750000000003,57.84615384615387L193.24874999999997,57.84615384615387L195.47,347.0769230769231L197.69125,347.0769230769231L202.13375000000002,347.0769230769231L204.355,347.0769230769231L206.57625,57.84615384615387L208.7975,347.0769230769231L211.01875,347.0769230769231L213.24,347.0769230769231L215.46124999999998,347.0769230769231L217.6825,347.0769230769231L219.90375,57.84615384615387L224.34624999999997,347.0769230769231L226.5675,57.84615384615387L228.78875,347.0769230769231L231.01,347.0769230769231L233.23125000000002,347.0769230769231L235.4525,347.0769230769231L237.67374999999998,347.0769230769231L239.895,347.0769230769231L242.11625,57.84615384615387L246.55874999999997,347.0769230769231L248.78,347.0769230769231L251.00125,347.0769230769231L253.2225,57.84615384615387L255.44375000000002,347.0769230769231L257.66499999999996,347.0769230769231L259.88625,347.0769230769231L262.1075,57.84615384615387L264.32875,57.84615384615387L268.77125,347.0769230769231L270.9925,347.0769230769231L273.21375,347.0769230769231L275.435,347.0769230769231L277.65625,347.0769230769231L279.8775,57.84615384615387L282.09875,347.0769230769231L284.32,347.0769230769231L286.54125,347.0769230769231L290.98375,347.0769230769231L293.205,347.0769230769231L295.42625,347.0769230769231L297.64750000000004,57.84615384615387L299.86875000000003,347.0769230769231L302.09,347.0769230769231L304.31125,57.84615384615387L306.5325,347.0769230769231L308.75375,347.0769230769231L313.19624999999996,347.0769230769231L315.4175,347.0769230769231L317.63875,347.0769230769231L319.86,347.0769230769231L322.08125,347.0769230769231L324.3025,347.0769230769231L326.52375,347.0769230769231L328.745,347.0769230769231L330.96625,347.0769230769231L335.40875,347.0769230769231L337.63,347.0769230769231L339.85125,347.0769230769231L342.0725,347.0769230769231L344.29375000000005,347.0769230769231L346.515,347.0769230769231L348.73625,347.0769230769231L350.9575,347.0769230769231L353.17875000000004,57.84615384615387L357.62125,347.0769230769231L359.8425,347.0769230769231L362.06374999999997,347.0769230769231L364.28499999999997,347.0769230769231L366.50624999999997,57.84615384615387L368.72749999999996,347.0769230769231L370.94875,57.84615384615387L373.17,347.0769230769231L375.39125,347.0769230769231L379.83375,347.0769230769231L382.05500000000006,347.0769230769231L384.27624999999995,347.0769230769231L386.49749999999995,347.0769230769231L388.71875,57.84615384615387L390.94,347.0769230769231L393.16125,57.84615384615387L395.3825,57.84615384615387L397.60375,347.0769230769231L402.04625000000004,347.0769230769231L404.26750000000004,347.0769230769231L406.48875,57.84615384615387L408.71,347.0769230769231L410.93125,347.0769230769231L413.1525,347.0769230769231L415.37375,347.0769230769231L417.595,347.0769230769231L422.0375,347.0769230769231L424.25875,347.0769230769231L426.48,347.0769230769231L428.70124999999996,347.0769230769231L430.92249999999996,347.0769230769231L433.14375,347.0769230769231L435.365,57.84615384615387L437.58625,57.84615384615387L439.8075,347.0769230769231L444.25,347.0769230769231L446.47125000000005,347.0769230769231L448.69249999999994,347.0769230769231L450.91375,347.0769230769231L453.135,347.0769230769231L455.35625,347.0769230769231L457.5775,347.0769230769231L459.79875,347.0769230769231L462.02,347.0769230769231L466.46250000000003,347.0769230769231L468.68375000000003,347.0769230769231L470.905,57.84615384615387L473.12624999999997,347.0769230769231L475.34749999999997,57.84615384615387L477.56874999999997,57.84615384615387L479.79,347.0769230769231L482.01125,57.84615384615387L484.2325,347.0769230769231L488.675,347.0769230769231L490.89625,57.84615384615387L493.11749999999995,347.0769230769231L495.33874999999995,57.84615384615387L497.56,347.0769230769231L499.78125,57.84615384615387L502.0025,347.0769230769231L504.22375,347.0769230769231L506.445,57.84615384615387L510.88750000000005,347.0769230769231L513.10875,347.0769230769231L515.3299999999999,347.0769230769231L517.55125,57.84615384615387L519.7725,347.0769230769231L521.99375,347.0769230769231L524.215,57.84615384615387L526.43625,57.84615384615387L528.6575,57.84615384615387L533.1,347.0769230769231L535.3212500000001,57.84615384615387L537.5425,347.0769230769231L539.76375,57.84615384615387L541.985,57.84615384615387L544.20625,347.0769230769231L546.4275,57.84615384615387L548.64875,57.84615384615387L550.87,57.84615384615387L555.3125,347.0769230769231L557.53375,57.84615384615387L559.755,57.84615384615387L561.9762499999999,347.0769230769231L564.1975,347.0769230769231L566.41875,57.84615384615387L568.64,57.84615384615387L570.86125,57.84615384615387L573.0825,57.84615384615387L577.525,57.84615384615387L579.7462499999999,347.0769230769231L581.9675,57.84615384615387L584.18875,347.0769230769231L586.41,57.84615384615387L588.63125,57.84615384615387L590.8525,57.84615384615387L593.07375,57.84615384615387L597.51625,57.84615384615387L599.7375000000001,57.84615384615387L601.95875,347.0769230769231L604.18,57.84615384615387L606.40125,57.84615384615387L608.6225,57.84615384615387L610.84375,57.84615384615387L613.065,347.0769230769231L615.28625,57.84615384615387L619.72875,347.0769230769231L621.95,57.84615384615387L624.17125,57.84615384615387L626.3924999999999,347.0769230769231L628.61375,57.84615384615387L630.835,57.84615384615387L633.05625,57.84615384615387L635.2775,57.84615384615387L637.49875,57.84615384615387L641.9412500000001,57.84615384615387L644.1625,57.84615384615387L646.38375,57.84615384615387L648.605,57.84615384615387L650.82625,57.84615384615387L653.0475,57.84615384615387L655.26875,57.84615384615387L657.49,57.84615384615387L659.7112500000001,57.84615384615387L664.1537500000001,57.84615384615387L666.375,57.84615384615387L668.5962499999999,57.84615384615387L670.8175,57.84615384615387L673.0387499999999,57.84615384615387L675.26,57.84615384615387L677.48125,57.84615384615387L679.7025,57.84615384615387L681.92375,57.84615384615387L686.36625,57.84615384615387L688.5875000000001,57.84615384615387L690.8087499999999,57.84615384615387L693.03,57.84615384615387L695.25125,57.84615384615387L697.4725,57.84615384615387L699.69375,57.84615384615387L701.915,57.84615384615387L704.13625,57.84615384615387L708.57875,57.84615384615387L710.8000000000001,57.84615384615387L713.02125,57.84615384615387L715.2425,57.84615384615387L717.46375,57.84615384615387L719.685,57.84615384615387L721.90625,347.0769230769231L724.1274999999999,57.84615384615387L726.34875,347.0769230769231L730.79125,57.84615384615387L733.0124999999999,57.84615384615387L735.2337500000001,57.84615384615387L737.4549999999999,57.84615384615387L739.6762500000001,57.84615384615387L741.8975,57.84615384615387L744.11875,57.84615384615387L746.34,57.84615384615387L748.56125,57.84615384615387L753.00375,347.0769230769231L755.225,57.84615384615387L757.44625,57.84615384615387L759.6675,57.84615384615387L761.88875,57.84615384615387L764.1100000000001,57.84615384615387L766.33125,57.84615384615387L768.5524999999999,347.0769230769231L770.7737500000001,57.84615384615387L775.2162500000001,57.84615384615387L777.4375,57.84615384615387L779.65875,57.84615384615387L781.88,57.84615384615387L784.10125,347.0769230769231L786.3225,347.0769230769231L788.5437499999999,57.84615384615387L790.765,57.84615384615387L792.9862499999999,57.84615384615387L797.4287499999999,57.84615384615387L799.6500000000001,347.0769230769231L801.8712499999999,57.84615384615387L804.0925000000001,57.84615384615387L806.31375,57.84615384615387L808.5350000000001,57.84615384615387L810.75625,57.84615384615387L812.9775,57.84615384615387L815.19875,57.84615384615387L819.64125,57.84615384615387L821.8625,57.84615384615387L824.08375,57.84615384615387L826.305,57.84615384615387L828.5262500000001,347.0769230769231L830.7475,57.84615384615387L832.9687499999999,57.84615384615387L835.19,57.84615384615387L837.41125,57.84615384615387L841.85375,57.84615384615387L844.075,57.84615384615387L846.29625,57.84615384615387L848.5175,57.84615384615387L850.73875,57.84615384615387L852.96,57.84615384615387L855.18125,347.0769230769231L857.4024999999999,347.0769230769231L859.62375,57.84615384615387L864.0662500000001,57.84615384615387L866.2875,57.84615384615387L868.5087500000001,347.0769230769231L870.73,57.84615384615387L872.9512500000001,57.84615384615387L875.1725,57.84615384615387L877.39375,57.84615384615387L879.615,57.84615384615387L881.83625,347.0769230769231L886.27875,57.84615384615387L888.5,57.84615384615387L890.7212499999999,57.84615384615387L892.9425000000001,57.84615384615387L895.16375,57.84615384615387L897.3849999999999,57.84615384615387L899.60625,57.84615384615387L901.8275,57.84615384615387L904.04875,347.0769230769231L908.49125,57.84615384615387L910.7125,57.84615384615387L912.93375,57.84615384615387L915.155,57.84615384615387L917.37625,347.0769230769231L919.5975,57.84615384615387L921.8187499999999,57.84615384615387L924.04,57.84615384615387L926.2612499999999,57.84615384615387L930.70375,57.84615384615387L932.9250000000001,57.84615384615387L935.14625,57.84615384615387L937.3675000000001,57.84615384615387L939.58875,57.84615384615387L941.81,57.84615384615387L944.03125,347.0769230769231L946.2524999999999,57.84615384615387L948.47375,57.84615384615387L952.91625,57.84615384615387L955.1374999999999,347.0769230769231L957.3587500000001,57.84615384615387L959.58,347.0769230769231L961.8012500000001,57.84615384615387L964.0225,57.84615384615387L966.24375,57.84615384615387L968.465,57.84615384615387L970.68625,57.84615384615387L975.12875,57.84615384615387L977.35,57.84615384615387L979.57125,57.84615384615387L981.7925,57.84615384615387L984.01375,347.0769230769231L986.2349999999999,347.0769230769231L988.4562500000001,57.84615384615387L990.6774999999999,57.84615384615387L992.8987500000001,57.84615384615387L997.3412500000001,57.84615384615387L999.5625,57.84615384615387L1001.78375,57.84615384615387L1004.005,57.84615384615387L1006.22625,57.84615384615387L1008.4475,57.84615384615387L1010.6687499999999,347.0769230769231L1012.89,57.84615384615387L1015.1112499999999,347.0769230769231L1019.5537499999999,57.84615384615387L1021.7750000000001,57.84615384615387L1023.99625,57.84615384615387L1026.2175,57.84615384615387L1028.43875,57.84615384615387L1030.6599999999999,57.84615384615387L1032.88125,57.84615384615387L1035.1025,57.84615384615387L1037.32375,57.84615384615387L1041.7662500000001,57.84615384615387L1043.9875,57.84615384615387L1046.20875,57.84615384615387L1048.43,57.84615384615387L1050.65125,57.84615384615387L1052.8725,57.84615384615387L1055.09375,57.84615384615387L1057.315,57.84615384615387L1059.5362499999999,57.84615384615387L1063.97875,57.84615384615387L1066.2,347.0769230769231L1068.42125,57.84615384615387L1070.6425000000002,57.84615384615387L1072.86375,57.84615384615387L1075.085,57.84615384615387L1077.30625,57.84615384615387L1079.5275,57.84615384615387L1081.74875,57.84615384615387L1086.19125,347.0769230769231L1088.4125,57.84615384615387L1090.63375,57.84615384615387L1092.855,57.84615384615387L1095.0762499999998,57.84615384615387L1097.2975,57.84615384615387L1099.51875,57.84615384615387L1101.74,57.84615384615387L1103.96125,57.84615384615387L1108.40375,347.0769230769231L1110.625,57.84615384615387L1112.84625,57.84615384615387L1115.0675,57.84615384615387L1117.28875,57.84615384615387L1119.51,57.84615384615387L1121.73125,57.84615384615387L1123.9524999999999,347.0769230769231L1126.17375,57.84615384615387L1130.61625,57.84615384615387L1132.8375,57.84615384615387L1135.0587500000001,347.0769230769231L1137.28,347.0769230769231L1139.50125,57.84615384615387L1141.7225,57.84615384615387L1143.94375,57.84615384615387L1146.165,57.84615384615387L1148.38625,57.84615384615387L1152.82875,57.84615384615387L1155.05,57.84615384615387L1157.27125,347.0769230769231L1159.4924999999998,57.84615384615387L1161.7137500000001,347.0769230769231L1163.935,57.84615384615387L1166.15625,57.84615384615387L1168.3775,347.0769230769231L1170.59875,57.84615384615387L1175.04125,347.0769230769231L1177.2625,57.84615384615387L1179.48375,57.84615384615387L1181.705,57.84615384615387L1183.92625,57.84615384615387L1186.1475,57.84615384615387L1188.3687499999999,57.84615384615387L1190.5900000000001,57.84615384615387L1192.81125,57.84615384615387L1197.25375,57.84615384615387L1199.4750000000001,57.84615384615387L1201.69625,347.0769230769231L1203.9175,57.84615384615387L1206.13875,347.0769230769231L1208.36,57.84615384615387L1210.58125,57.84615384615387L1212.8025,57.84615384615387L1215.02375,57.84615384615387L1219.4662500000002,57.84615384615387L1221.6875,57.84615384615387L1223.90875,57.84615384615387L1226.13,347.0769230769231L1228.35125,347.0769230769231L1230.5725,347.0769230769231L1232.79375,57.84615384615387L1235.015,57.84615384615387L1237.23625,57.84615384615387L1241.67875,57.84615384615387L1243.9,57.84615384615387L1246.12125,57.84615384615387L1248.3425,347.0769230769231L1250.56375,57.84615384615387L1252.7849999999999,57.84615384615387L1255.0062500000001,347.0769230769231L1257.2275,347.0769230769231L1259.44875,57.84615384615387L1263.8912500000001,57.84615384615387L1266.1125,57.84615384615387L1268.33375,57.84615384615387L1270.555,57.84615384615387L1272.77625,347.0769230769231L1274.9975,347.0769230769231L1277.21875,57.84615384615387L1279.44,57.84615384615387L1281.6612499999999,57.84615384615387L1286.10375,57.84615384615387L1288.325,57.84615384615387L1290.54625,347.0769230769231L1292.7675,57.84615384615387L1294.98875,57.84615384615387L1297.21,57.84615384615387L1299.43125,57.84615384615387L1301.6525,57.84615384615387L1303.87375,57.84615384615387L1308.31625,57.84615384615387L1310.5375,57.84615384615387L1312.75875,57.84615384615387L1314.98,57.84615384615387L1317.2012499999998,57.84615384615387L1319.4225000000001,57.84615384615387L1321.64375,57.84615384615387L1323.865,57.84615384615387L1328.3075000000001,57.84615384615387L1330.52875,57.84615384615387L1332.75,57.84615384615387L1334.97125,57.84615384615387L1337.1924999999999,57.84615384615387L1339.41375,57.84615384615387L1341.635,57.84615384615387L1343.85625,57.84615384615387L1346.0774999999999,57.84615384615387L1350.52,347.0769230769231L1352.74125,57.84615384615387L1354.9625,57.84615384615387L1357.18375,57.84615384615387" style="fill: none;" fill="none"></path></g></g></g></g></g></g><g transform="translate(52, 376)" clip-path="url(#clip_1)"><clipPath id="clip_1"><rect width="1443" height="24"></rect></clipPath><g><g><line x1="0" y1="0" x2="0" y2="5" style="visibility: inherit;" fill="rgb(0, 0, 0)" stroke="rgb(204, 204, 204)" stroke-width="1px"></line><line x1="111.0625" y1="0" x2="111.0625" y2="5" style="visibility: inherit;" fill="rgb(0, 0, 0)" stroke="rgb(204, 204, 204)" stroke-width="1px"></line><line x1="222.125" y1="0" x2="222.125" y2="5" style="visibility: inherit;" fill="rgb(0, 0, 0)" stroke="rgb(204, 204, 204)" stroke-width="1px"></line><line x1="333.1875" y1="0" x2="333.1875" y2="5" style="visibility: inherit;" fill="rgb(0, 0, 0)" stroke="rgb(204, 204, 204)" stroke-width="1px"></line><line x1="444.25" y1="0" x2="444.25" y2="5" style="visibility: inherit;" fill="rgb(0, 0, 0)" stroke="rgb(204, 204, 204)" stroke-width="1px"></line><line x1="555.3125" y1="0" x2="555.3125" y2="5" style="visibility: inherit;" fill="rgb(0, 0, 0)" stroke="rgb(204, 204, 204)" stroke-width="1px"></line><line x1="666.375" y1="0" x2="666.375" y2="5" style="visibility: inherit;" fill="rgb(0, 0, 0)" stroke="rgb(204, 204, 204)" stroke-width="1px"></line><line x1="777.4375" y1="0" x2="777.4375" y2="5" style="visibility: inherit;" fill="rgb(0, 0, 0)" stroke="rgb(204, 204, 204)" stroke-width="1px"></line><line x1="888.5" y1="0" x2="888.5" y2="5" style="visibility: inherit;" fill="rgb(0, 0, 0)" stroke="rgb(204, 204, 204)" stroke-width="1px"></line><line x1="999.5625" y1="0" x2="999.5625" y2="5" style="visibility: inherit;" fill="rgb(0, 0, 0)" stroke="rgb(204, 204, 204)" stroke-width="1px"></line><line x1="1110.625" y1="0" x2="1110.625" y2="5" style="visibility: inherit;" fill="rgb(0, 0, 0)" stroke="rgb(204, 204, 204)" stroke-width="1px"></line><line x1="1221.6875" y1="0" x2="1221.6875" y2="5" style="visibility: inherit;" fill="rgb(0, 0, 0)" stroke="rgb(204, 204, 204)" stroke-width="1px"></line><line x1="1332.75" y1="0" x2="1332.75" y2="5" style="visibility: inherit;" fill="rgb(0, 0, 0)" stroke="rgb(204, 204, 204)" stroke-width="1px"></line><line x1="1443.8125" y1="0" x2="1443.8125" y2="5" style="visibility: inherit;" fill="rgb(0, 0, 0)" stroke="rgb(204, 204, 204)" stroke-width="1px"></line></g><g transform="translate(0, 8)"><text x="0" y="0" dx="0em" dy="0.95em" style="text-anchor: middle; visibility: hidden; font-family: &quot;Helvetica Neue&quot;, sans-serif; font-size: 12px; font-weight: 200;" fill="rgb(50, 49, 63)" stroke="none" stroke-width="1px">-50</text><text x="111.0625" y="0" dx="0em" dy="0.95em" style="text-anchor: middle; visibility: inherit; font-family: &quot;Helvetica Neue&quot;, sans-serif; font-size: 12px; font-weight: 200;" fill="rgb(50, 49, 63)" stroke="none" stroke-width="1px">0</text><text x="222.125" y="0" dx="0em" dy="0.95em" style="text-anchor: middle; visibility: inherit; font-family: &quot;Helvetica Neue&quot;, sans-serif; font-size: 12px; font-weight: 200;" fill="rgb(50, 49, 63)" stroke="none" stroke-width="1px">50</text><text x="333.1875" y="0" dx="0em" dy="0.95em" style="text-anchor: middle; visibility: inherit; font-family: &quot;Helvetica Neue&quot;, sans-serif; font-size: 12px; font-weight: 200;" fill="rgb(50, 49, 63)" stroke="none" stroke-width="1px">100</text><text x="444.25" y="0" dx="0em" dy="0.95em" style="text-anchor: middle; visibility: inherit; font-family: &quot;Helvetica Neue&quot;, sans-serif; font-size: 12px; font-weight: 200;" fill="rgb(50, 49, 63)" stroke="none" stroke-width="1px">150</text><text x="555.3125" y="0" dx="0em" dy="0.95em" style="text-anchor: middle; visibility: inherit; font-family: &quot;Helvetica Neue&quot;, sans-serif; font-size: 12px; font-weight: 200;" fill="rgb(50, 49, 63)" stroke="none" stroke-width="1px">200</text><text x="666.375" y="0" dx="0em" dy="0.95em" style="text-anchor: middle; visibility: inherit; font-family: &quot;Helvetica Neue&quot;, sans-serif; font-size: 12px; font-weight: 200;" fill="rgb(50, 49, 63)" stroke="none" stroke-width="1px">250</text><text x="777.4375" y="0" dx="0em" dy="0.95em" style="text-anchor: middle; visibility: inherit; font-family: &quot;Helvetica Neue&quot;, sans-serif; font-size: 12px; font-weight: 200;" fill="rgb(50, 49, 63)" stroke="none" stroke-width="1px">300</text><text x="888.5" y="0" dx="0em" dy="0.95em" style="text-anchor: middle; visibility: inherit; font-family: &quot;Helvetica Neue&quot;, sans-serif; font-size: 12px; font-weight: 200;" fill="rgb(50, 49, 63)" stroke="none" stroke-width="1px">350</text><text x="999.5625" y="0" dx="0em" dy="0.95em" style="text-anchor: middle; visibility: inherit; font-family: &quot;Helvetica Neue&quot;, sans-serif; font-size: 12px; font-weight: 200;" fill="rgb(50, 49, 63)" stroke="none" stroke-width="1px">400</text><text x="1110.625" y="0" dx="0em" dy="0.95em" style="text-anchor: middle; visibility: inherit; font-family: &quot;Helvetica Neue&quot;, sans-serif; font-size: 12px; font-weight: 200;" fill="rgb(50, 49, 63)" stroke="none" stroke-width="1px">450</text><text x="1221.6875" y="0" dx="0em" dy="0.95em" style="text-anchor: middle; visibility: inherit; font-family: &quot;Helvetica Neue&quot;, sans-serif; font-size: 12px; font-weight: 200;" fill="rgb(50, 49, 63)" stroke="none" stroke-width="1px">500</text><text x="1332.75" y="0" dx="0em" dy="0.95em" style="text-anchor: middle; visibility: inherit; font-family: &quot;Helvetica Neue&quot;, sans-serif; font-size: 12px; font-weight: 200;" fill="rgb(50, 49, 63)" stroke="none" stroke-width="1px">550</text><text x="1443.8125" y="0" dx="0em" dy="0.95em" style="text-anchor: middle; visibility: hidden; font-family: &quot;Helvetica Neue&quot;, sans-serif; font-size: 12px; font-weight: 200;" fill="rgb(50, 49, 63)" stroke="none" stroke-width="1px">600</text></g><line x1="0" y1="0" x2="1443.8125" y2="0" fill="rgb(0, 0, 0)" stroke="rgb(204, 204, 204)" stroke-width="1px"></line></g></g></g></g></svg>